<svg width="29" height="29" viewBox="0 0 29 29" fill="none" xmlns="http://www.w3.org/2000/svg">
<path d="M20.5418 25.375V22.9583C20.5418 21.6765 20.0326 20.4471 19.1262 19.5407C18.2198 18.6342 16.9904 18.125 15.7085 18.125H6.04183C4.75995 18.125 3.53057 18.6342 2.62415 19.5407C1.71772 20.4471 1.2085 21.6765 1.2085 22.9583V25.375" stroke="white" stroke-width="2" stroke-linecap="round" stroke-linejoin="round"/>
<path d="M10.8753 13.2917C13.5447 13.2917 15.7087 11.1277 15.7087 8.45833C15.7087 5.78896 13.5447 3.625 10.8753 3.625C8.20595 3.625 6.04199 5.78896 6.04199 8.45833C6.04199 11.1277 8.20595 13.2917 10.8753 13.2917Z" stroke="white" stroke-width="2" stroke-linecap="round" stroke-linejoin="round"/>
<path d="M27.792 25.3749V22.9582C27.7912 21.8873 27.4348 20.847 26.7786 20.0006C26.1225 19.1542 25.2039 18.5497 24.167 18.282" stroke="white" stroke-width="2" stroke-linecap="round" stroke-linejoin="round"/>
<path d="M19.3335 3.78198C20.3732 4.04818 21.2947 4.65283 21.9527 5.50061C22.6108 6.34839 22.968 7.39107 22.968 8.46427C22.968 9.53748 22.6108 10.5802 21.9527 11.4279C21.2947 12.2757 20.3732 12.8804 19.3335 13.1466" stroke="white" stroke-width="2" stroke-linecap="round" stroke-linejoin="round"/>
</svg>
