<svg width="30" height="30" viewBox="0 0 30 30" fill="none" xmlns="http://www.w3.org/2000/svg">
    <path d="M28.125 24.375H27.1875V12.1875C27.1875 11.6902 26.99 11.2133 26.6383 10.8617C26.2867 10.51 25.8098 10.3125 25.3125 10.3125H17.8125V4.6875C17.8125 4.19022 17.615 3.71331 17.2633 3.36167C16.9117 3.01004 16.4348 2.8125 15.9375 2.8125H4.6875C4.19022 2.8125 3.71331 3.01004 3.36167 3.36167C3.01004 3.71331 2.8125 4.19022 2.8125 4.6875V24.375H1.875C1.62636 24.375 1.3879 24.4738 1.21209 24.6496C1.03627 24.8254 0.9375 25.0639 0.9375 25.3125C0.9375 25.5611 1.03627 25.7996 1.21209 25.9754C1.3879 26.1512 1.62636 26.25 1.875 26.25H28.125C28.3736 26.25 28.6121 26.1512 28.7879 25.9754C28.9637 25.7996 29.0625 25.5611 29.0625 25.3125C29.0625 25.0639 28.9637 24.8254 28.7879 24.6496C28.6121 24.4738 28.3736 24.375 28.125 24.375ZM25.3125 12.1875V24.375H17.8125V12.1875H25.3125ZM4.6875 4.6875H15.9375V24.375H4.6875V4.6875ZM6.5625 8.4375C6.5625 8.18886 6.66127 7.9504 6.83709 7.77459C7.0129 7.59877 7.25136 7.5 7.5 7.5H11.25C11.4986 7.5 11.7371 7.59877 11.9129 7.77459C12.0887 7.9504 12.1875 8.18886 12.1875 8.4375C12.1875 8.68614 12.0887 8.9246 11.9129 9.10041C11.7371 9.27623 11.4986 9.375 11.25 9.375H7.5C7.25136 9.375 7.0129 9.27623 6.83709 9.10041C6.66127 8.9246 6.5625 8.68614 6.5625 8.4375ZM14.0625 15.9375C14.0625 16.1861 13.9637 16.4246 13.7879 16.6004C13.6121 16.7762 13.3736 16.875 13.125 16.875H9.375C9.12636 16.875 8.8879 16.7762 8.71209 16.6004C8.53627 16.4246 8.4375 16.1861 8.4375 15.9375C8.4375 15.6889 8.53627 15.4504 8.71209 15.2746C8.8879 15.0988 9.12636 15 9.375 15H13.125C13.3736 15 13.6121 15.0988 13.7879 15.2746C13.9637 15.4504 14.0625 15.6889 14.0625 15.9375ZM12.1875 20.625C12.1875 20.8736 12.0887 21.1121 11.9129 21.2879C11.7371 21.4637 11.4986 21.5625 11.25 21.5625H7.5C7.25136 21.5625 7.0129 21.4637 6.83709 21.2879C6.66127 21.1121 6.5625 20.8736 6.5625 20.625C6.5625 20.3764 6.66127 20.1379 6.83709 19.9621C7.0129 19.7863 7.25136 19.6875 7.5 19.6875H11.25C11.4986 19.6875 11.7371 19.7863 11.9129 19.9621C12.0887 20.1379 12.1875 20.3764 12.1875 20.625ZM23.4375 20.625C23.4375 20.8736 23.3387 21.1121 23.1629 21.2879C22.9871 21.4637 22.7486 21.5625 22.5 21.5625H20.625C20.3764 21.5625 20.1379 21.4637 19.9621 21.2879C19.7863 21.1121 19.6875 20.8736 19.6875 20.625C19.6875 20.3764 19.7863 20.1379 19.9621 19.9621C20.1379 19.7863 20.3764 19.6875 20.625 19.6875H22.5C22.7486 19.6875 22.9871 19.7863 23.1629 19.9621C23.3387 20.1379 23.4375 20.3764 23.4375 20.625ZM19.6875 15.9375C19.6875 15.6889 19.7863 15.4504 19.9621 15.2746C20.1379 15.0988 20.3764 15 20.625 15H22.5C22.7486 15 22.9871 15.0988 23.1629 15.2746C23.3387 15.4504 23.4375 15.6889 23.4375 15.9375C23.4375 16.1861 23.3387 16.4246 23.1629 16.6004C22.9871 16.7762 22.7486 16.875 22.5 16.875H20.625C20.3764 16.875 20.1379 16.7762 19.9621 16.6004C19.7863 16.4246 19.6875 16.1861 19.6875 15.9375Z"
          fill="white"/>
</svg>
