<svg width="32" height="32" viewBox="0 0 32 32" fill="none" xmlns="http://www.w3.org/2000/svg">
<path d="M21.867 4.2666C22.9309 4.26644 23.955 4.67095 24.7316 5.39809C25.5083 6.12523 25.9792 7.12056 26.049 8.18217L26.0574 8.45707V12.7313C26.9556 12.915 27.7688 13.3881 28.3724 14.078C28.9761 14.768 29.3369 15.6368 29.3997 16.5514L29.4098 16.838V26.8951C29.4102 27.1045 29.3321 27.3065 29.191 27.4613C29.0499 27.6161 28.856 27.7124 28.6474 27.7313C28.4388 27.7502 28.2307 27.6904 28.0641 27.5635C27.8974 27.4367 27.7843 27.252 27.747 27.046L27.7336 26.8951V22.7046H4.26701V26.8951C4.26739 27.1045 4.18935 27.3065 4.04825 27.4613C3.90715 27.6161 3.71322 27.7124 3.50464 27.7313C3.29606 27.7502 3.08796 27.6904 2.92131 27.5635C2.75466 27.4367 2.64154 27.252 2.60423 27.046L2.59082 26.8951V16.838C2.59062 15.872 2.9242 14.9355 3.53509 14.1872C4.14599 13.4388 4.99668 12.9245 5.94319 12.7313V8.45707C5.94303 7.39316 6.34754 6.36902 7.07468 5.59239C7.80182 4.81575 8.79715 4.34477 9.85876 4.27498L10.1337 4.2666H21.867ZM25.2193 14.3237H6.78128C6.15653 14.3237 5.55414 14.5563 5.09151 14.9762C4.62887 15.396 4.33913 15.9731 4.27874 16.5949L4.26701 16.838V21.0285H27.7336V16.838C27.7336 16.2132 27.501 15.6108 27.0812 15.1482C26.6613 14.6856 26.0842 14.3958 25.4624 14.3354L25.2193 14.3237ZM21.867 5.94279H10.1337C9.50863 5.94282 8.90603 6.17564 8.44336 6.59586C7.98068 7.01608 7.69111 7.59356 7.63111 8.21569L7.61938 8.45707V12.6475H9.29556V11.8094C9.29556 11.5872 9.38386 11.374 9.54103 11.2168C9.69821 11.0596 9.91138 10.9713 10.1337 10.9713H14.3241C14.5464 10.9713 14.7596 11.0596 14.9167 11.2168C15.0739 11.374 15.1622 11.5872 15.1622 11.8094V12.6475H16.8384V11.8094C16.8384 11.5872 16.9267 11.374 17.0839 11.2168C17.241 11.0596 17.4542 10.9713 17.6765 10.9713H21.867C22.0892 10.9713 22.3024 11.0596 22.4596 11.2168C22.6167 11.374 22.705 11.5872 22.705 11.8094V12.6475H24.3812V8.45707C24.3812 7.83231 24.1487 7.22992 23.7288 6.76729C23.3089 6.30466 22.7318 6.01491 22.11 5.95452L21.867 5.94279Z" fill="white"/>
</svg>
