<svg width="23" height="23" viewBox="0 0 23 23" fill="none" xmlns="http://www.w3.org/2000/svg">
<g clip-path="url(#clip0_1090_1913)">
<path d="M22.7903 0.209907C22.8898 0.309572 22.9578 0.436276 22.9859 0.574281C23.014 0.712285 23.001 0.855508 22.9484 0.986157L14.5836 21.8975C14.5099 22.0816 14.3868 22.2419 14.2278 22.3606C14.0689 22.4793 13.8803 22.5519 13.6828 22.5703C13.4853 22.5887 13.2865 22.5523 13.1084 22.465C12.9303 22.3778 12.7796 22.2431 12.6731 22.0757L8.10476 14.8954L0.924443 10.327C0.756713 10.2206 0.621636 10.07 0.534119 9.89165C0.446601 9.71334 0.410045 9.51432 0.428484 9.31655C0.446923 9.11877 0.51964 8.92994 0.638612 8.77088C0.757584 8.61182 0.918185 8.48872 1.10269 8.41516L22.014 0.0532197C22.1447 0.000624808 22.2879 -0.0124273 22.4259 0.0156847C22.5639 0.0437967 22.6906 0.111834 22.7903 0.211345V0.209907ZM9.53938 14.4757L13.5083 20.7115L20.312 3.70303L9.53938 14.4757ZM19.2957 2.68672L2.28719 9.49041L8.52451 13.4579L19.2971 2.68672H19.2957Z" fill="white"/>
</g>
<defs>
<clipPath id="clip0_1090_1913">
<rect width="23" height="23" fill="white"/>
</clipPath>
</defs>
</svg>
