<svg width="32" height="32" viewBox="0 0 32 32" fill="none" xmlns="http://www.w3.org/2000/svg">
<path d="M28 8.00004H23.7733L21.3333 5.33337H13.3333V8.00004H20.16L22.6 10.6667H28V26.6667H6.66667V14.6667H4V26.6667C4 28.1334 5.2 29.3334 6.66667 29.3334H28C29.4667 29.3334 30.6667 28.1334 30.6667 26.6667V10.6667C30.6667 9.20004 29.4667 8.00004 28 8.00004ZM10.6667 18.6667C10.6667 22.3467 13.6533 25.3334 17.3333 25.3334C21.0133 25.3334 24 22.3467 24 18.6667C24 14.9867 21.0133 12 17.3333 12C13.6533 12 10.6667 14.9867 10.6667 18.6667ZM17.3333 14.6667C19.5333 14.6667 21.3333 16.4667 21.3333 18.6667C21.3333 20.8667 19.5333 22.6667 17.3333 22.6667C15.1333 22.6667 13.3333 20.8667 13.3333 18.6667C13.3333 16.4667 15.1333 14.6667 17.3333 14.6667ZM6.66667 8.00004H10.6667V5.33337H6.66667V1.33337H4V5.33337H0V8.00004H4V12H6.66667V8.00004Z" fill="white"/>
</svg>
