<svg width="28" height="28" viewBox="0 0 28 28" fill="none" xmlns="http://www.w3.org/2000/svg">
<path d="M16.3333 15.75V9.33337C16.3333 8.0957 15.8417 6.90871 14.9665 6.03354C14.0913 5.15837 12.9043 4.66671 11.6667 4.66671C10.429 4.66671 9.24201 5.15837 8.36684 6.03354C7.49167 6.90871 7 8.0957 7 9.33337V15.75C7 17.7613 7.79896 19.6901 9.22111 21.1123C10.6433 22.5344 12.5721 23.3334 14.5833 23.3334C16.5946 23.3334 18.5234 22.5344 19.9456 21.1123C21.3677 19.6901 22.1667 17.7613 22.1667 15.75V4.66671H24.5V15.75C24.5 18.3801 23.4552 20.9024 21.5955 22.7622C19.7357 24.6219 17.2134 25.6667 14.5833 25.6667C11.9533 25.6667 9.43093 24.6219 7.5712 22.7622C5.71146 20.9024 4.66667 18.3801 4.66667 15.75V9.33337C4.66667 7.47686 5.40417 5.69638 6.71692 4.38363C8.02968 3.07087 9.81016 2.33337 11.6667 2.33337C13.5232 2.33337 15.3037 3.07087 16.6164 4.38363C17.9292 5.69638 18.6667 7.47686 18.6667 9.33337V15.75C18.6667 16.833 18.2365 17.8716 17.4707 18.6374C16.7049 19.4032 15.6663 19.8334 14.5833 19.8334C13.5004 19.8334 12.4618 19.4032 11.696 18.6374C10.9302 17.8716 10.5 16.833 10.5 15.75V9.33337H12.8333V15.75C12.8333 16.2142 13.0177 16.6593 13.3459 16.9875C13.6741 17.3157 14.1192 17.5 14.5833 17.5C15.0475 17.5 15.4926 17.3157 15.8208 16.9875C16.149 16.6593 16.3333 16.2142 16.3333 15.75Z" fill="#3D62BB"/>
</svg>
