<svg width="28" height="28" viewBox="0 0 28 28" fill="none" xmlns="http://www.w3.org/2000/svg">
    <path d="M10.5 1.16663V3.49996H17.5V1.16663H19.8334V3.49996H24.5C24.8095 3.49996 25.1062 3.62288 25.325 3.84167C25.5438 4.06046 25.6667 4.35721 25.6667 4.66663V23.3333C25.6667 23.6427 25.5438 23.9395 25.325 24.1583C25.1062 24.377 24.8095 24.5 24.5 24.5H3.50004C3.19062 24.5 2.89388 24.377 2.67508 24.1583C2.45629 23.9395 2.33337 23.6427 2.33337 23.3333V4.66663C2.33337 4.35721 2.45629 4.06046 2.67508 3.84167C2.89388 3.62288 3.19062 3.49996 3.50004 3.49996H8.16671V1.16663H10.5ZM23.3334 11.6666H4.66671V22.1666H23.3334V11.6666ZM17.542 12.992L19.1917 14.6416L13.4167 20.4166L9.29137 16.2913L10.9434 14.6416L13.4179 17.1173L17.5432 12.992H17.542ZM8.16671 5.83329H4.66671V9.33329H23.3334V5.83329H19.8334V6.99996H17.5V5.83329H10.5V6.99996H8.16671V5.83329Z"
          fill="#3D62BB"/>
</svg>
