<svg width="28" height="28" viewBox="0 0 28 28" fill="none" xmlns="http://www.w3.org/2000/svg">
<path d="M2.33333 4.6585C2.33546 4.35211 2.45805 4.05885 2.67459 3.84209C2.89114 3.62532 3.18427 3.50244 3.49066 3.5H24.5093C25.1487 3.5 25.6667 4.01917 25.6667 4.6585V23.3415C25.6645 23.6479 25.5419 23.9411 25.3254 24.1579C25.1089 24.3747 24.8157 24.4976 24.5093 24.5H3.49066C3.18361 24.4997 2.88924 24.3775 2.67223 24.1603C2.45522 23.943 2.33333 23.6486 2.33333 23.3415V4.6585ZM4.66666 5.83333V22.1667H23.3333V5.83333H4.66666ZM7 8.16667H14V15.1667H7V8.16667ZM9.33333 10.5V12.8333H11.6667V10.5H9.33333ZM7 17.5H21V19.8333H7V17.5ZM16.3333 8.16667H21V10.5H16.3333V8.16667ZM16.3333 12.8333H21V15.1667H16.3333V12.8333Z" fill="#3D62BB"/>
</svg>
