<svg width="171" height="63" viewBox="0 0 171 63" fill="none" xmlns="http://www.w3.org/2000/svg">
    <path d="M2.324 27V7.008H6.496V14.82H11.228L14.896 7.008H19.208L14.728 16.724L19.46 27H15.148L11.256 18.6H6.496V27H2.324ZM35.527 27L33.903 21.596H26.287L24.663 27H20.547L26.903 7.008H33.371L39.755 27H35.527ZM29.451 11.012L27.351 17.956H32.783L30.683 11.012H29.451ZM55.594 7.008H59.766V27H55.594V18.628H46.746V27H42.574V7.008H46.746V14.792H55.594V7.008ZM64.3943 7.008H68.2863V20.952H69.0143L76.2103 7.008H81.8383V27H77.9183V12.748H77.1903L69.8263 27H64.3943V7.008ZM86.4607 27V7.008H90.6327V14.82H95.3647L99.0327 7.008H103.345L98.8647 16.724L103.597 27H99.2847L95.3927 18.6H90.6327V27H86.4607ZM113.532 15.968H114.316L118.544 7.008H122.772L113.196 27H109.024L111.88 21.008L104.488 7.008H108.856L113.532 15.968ZM122.514 22.912H123.214C124.035 22.912 124.642 22.7813 125.034 22.52C125.444 22.24 125.762 21.5867 125.986 20.56C126.228 19.5147 126.35 17.9467 126.35 15.856V7.008H140.994V27H136.794V10.732H130.298V16.136C130.298 17.984 130.195 19.552 129.99 20.84C129.803 22.1093 129.542 23.1547 129.206 23.976C128.87 24.7787 128.394 25.404 127.778 25.852C127.18 26.3 126.527 26.608 125.818 26.776C125.127 26.9253 124.268 27 123.242 27H122.514V22.912ZM163.581 7.008H167.753V27H163.581V7.008ZM149.777 23.332H153.305C154.649 23.332 155.611 23.0893 156.189 22.604C156.787 22.1187 157.085 21.3813 157.085 20.392C157.085 19.4213 156.787 18.6933 156.189 18.208C155.611 17.704 154.649 17.452 153.305 17.452H149.777V23.332ZM153.949 27H145.605V7.008H149.777V13.784H153.949C156.301 13.784 158.121 14.3627 159.409 15.52C160.716 16.6773 161.369 18.292 161.369 20.364C161.369 22.4547 160.716 24.088 159.409 25.264C158.121 26.4213 156.301 27 153.949 27Z"
          fill="#A9C0F7"/>
    <path d="M36.324 56V36.008H42.736L46.012 44.072H46.74L49.988 36.008H56.428V56H52.536V41.104H51.808L48.448 49.168H44.276L40.944 41.104H40.216V56H36.324ZM75.4628 39.732H65.2148V56H61.0428V36.008H75.4628V39.732ZM85.9262 44.968H86.7102L90.9382 36.008H95.1662L85.5902 56H81.4182L84.2742 50.008L76.8822 36.008H81.2502L85.9262 44.968Z"
          fill="#A9C0F7"/>
    <path d="M141 54.5C139.011 54.5 137.103 53.7098 135.697 52.3033C134.29 50.8968 133.5 48.9891 133.5 47C133.5 45.0109 134.29 43.1032 135.697 41.6967C137.103 40.2902 139.011 39.5 141 39.5C142.989 39.5 144.897 40.2902 146.303 41.6967C147.71 43.1032 148.5 45.0109 148.5 47C148.5 48.9891 147.71 50.8968 146.303 52.3033C144.897 53.7098 142.989 54.5 141 54.5ZM141 52C142.326 52 143.598 51.4732 144.536 50.5355C145.473 49.5979 146 48.3261 146 47C146 45.6739 145.473 44.4021 144.536 43.4645C143.598 42.5268 142.326 42 141 42C139.674 42 138.402 42.5268 137.464 43.4645C136.527 44.4021 136 45.6739 136 47C136 48.3261 136.527 49.5979 137.464 50.5355C138.402 51.4732 139.674 52 141 52ZM139.75 34.5H142.25V38.25H139.75V34.5ZM128.5 45.75H132.25V48.25H128.5V45.75ZM149.75 45.75H153.5V48.25H149.75V45.75ZM139.75 55.75H142.25V59.5H139.75V55.75ZM149.276 37L151.045 38.7675L148.392 41.42L146.625 39.65L149.276 37ZM146.625 53.7675L148.392 52L151.045 54.6513L149.276 56.42L146.625 53.7675ZM133.651 52L135.42 53.7675L132.767 56.42L131 54.65L133.651 52ZM131 38.7675L132.767 37L135.42 39.6512L133.65 41.42L131 38.7675Z"
          fill="#A9C0F7"/>
    <path d="M20.6667 38.4583L24.5417 42.3333L21.9583 43.6249L27.125 48.7916L23.25 50.0833L28.4167 55.2499H16.7917"
          stroke="#A9C0F7" stroke-width="2" stroke-linecap="round" stroke-linejoin="round"/>
    <path d="M19.375 59.125V55.25" stroke="#A9C0F7" stroke-width="2" stroke-linecap="round" stroke-linejoin="round"/>
    <path d="M10.3333 48.7916L7.75 46.2083" stroke="#A9C0F7" stroke-width="2" stroke-linecap="round"
          stroke-linejoin="round"/>
    <path d="M10.3333 47.4998L12.9167 44.9165" stroke="#A9C0F7" stroke-width="2" stroke-linecap="round"
          stroke-linejoin="round"/>
    <path d="M10.3333 59.1249V42.3333" stroke="#A9C0F7" stroke-width="2" stroke-linecap="round"
          stroke-linejoin="round"/>
    <path d="M7.52266 52.6601C6.95752 52.6271 6.40649 52.4705 5.90834 52.2016C5.41018 51.9327 4.97701 51.5579 4.63928 51.1035C4.30154 50.6492 4.06746 50.1264 3.95349 49.5719C3.83953 49.0174 3.84844 48.4446 3.97962 47.8939C3.51085 47.5042 3.14069 47.0094 2.89925 46.4497C2.65781 45.89 2.55192 45.2812 2.59019 44.6728C2.62846 44.0645 2.8098 43.4737 3.11947 42.9487C3.42914 42.4236 3.85838 41.9791 4.37228 41.6513C3.92197 40.8513 3.7703 39.9174 3.9443 39.016C4.1183 38.1146 4.60667 37.3043 5.32239 36.7294C6.0381 36.1545 6.93468 35.8524 7.85238 35.8769C8.77007 35.9013 9.64927 36.2508 10.3333 36.8631C11.0175 36.2518 11.8964 35.9031 12.8136 35.8791C13.7308 35.8551 14.6267 36.1574 15.342 36.732C16.0572 37.3066 16.5454 38.1164 16.7195 39.0172C16.8937 39.9181 16.7426 40.8514 16.2931 41.6513C16.8073 41.9788 17.2369 42.4232 17.5468 42.9482C17.8568 43.4732 18.0383 44.064 18.0767 44.6725C18.1151 45.2809 18.0093 45.8898 17.7678 46.4497C17.5263 47.0095 17.156 47.5043 16.687 47.8939C16.8226 48.4633 16.8275 49.0559 16.7012 49.6274C16.575 50.1989 16.3209 50.7344 15.9581 51.1937C15.5953 51.653 15.1332 52.0241 14.6064 52.2792C14.0796 52.5343 13.5019 52.6667 12.9167 52.6666H7.74999L7.52266 52.6601Z"
          stroke="#A9C0F7" stroke-width="2" stroke-linecap="round" stroke-linejoin="round"/>
    <g clip-path="url(#clip0_528_282)">
        <path d="M102.192 41.3322C104.521 39.2032 106.362 37.5201 111.354 40.5222C113.753 41.9641 115.687 42.5084 117.298 42.5082C120.118 42.5082 121.945 40.8387 123.525 39.3936C124.089 38.8788 124.161 37.9648 123.687 37.3521C123.213 36.7394 122.372 36.6602 121.808 37.1759C119.479 39.3057 117.639 40.9882 112.645 37.9855C106.048 34.0196 102.958 36.8447 100.475 39.1141C99.9118 39.6292 99.839 40.5432 100.313 41.1559C100.787 41.7683 101.628 41.8475 102.192 41.3322ZM121.808 44.422C119.479 46.5512 117.639 48.2341 112.645 45.2316C106.048 41.2655 102.958 44.0905 100.475 46.3602C99.9118 46.8756 99.839 47.7897 100.313 48.4015C100.787 49.0142 101.628 49.0934 102.192 48.578C104.521 46.4488 106.362 44.7659 111.354 47.7678C113.753 49.2097 115.687 49.7543 117.298 49.7543C120.118 49.7543 121.945 48.0845 123.525 46.6398C124.089 46.1244 124.161 45.2103 123.687 44.5982C123.213 43.985 122.372 43.9064 121.808 44.422ZM121.808 51.6673C119.479 53.7968 117.639 55.4793 112.645 52.4772C106.048 48.511 102.958 51.3361 100.475 53.6058C99.9118 54.1209 99.839 55.0352 100.313 55.6479C100.787 56.2598 101.628 56.3392 102.192 55.8239C104.521 53.6941 106.361 52.0121 111.354 55.0134C113.753 56.4558 115.687 56.9999 117.298 56.9999C120.118 56.9999 121.945 55.3301 123.525 53.8856C124.089 53.3705 124.161 52.4559 123.687 51.8435C123.213 51.2311 122.372 51.1525 121.808 51.6673Z"
              fill="#A9C0F7"/>
    </g>
    <defs>
        <clipPath id="clip0_528_282">
            <rect width="24" height="21" fill="white" transform="translate(100 36)"/>
        </clipPath>
    </defs>
</svg>
