<svg width="1400" height="803" viewBox="0 0 1400 803" fill="none" xmlns="http://www.w3.org/2000/svg">
    <path fill-rule="evenodd" clip-rule="evenodd"
          d="M-54.2256 759.342L-19.1627 703.445C15.1379 646.813 85.2636 533.549 154.627 498.246C224.753 462.943 294.116 505.601 364.242 540.904C433.605 576.207 502.969 604.155 573.094 632.839C642.458 660.787 712.584 688.736 781.947 674.762C852.073 660.787 921.436 604.155 990.8 597.536C1060.93 590.181 1130.29 632.839 1200.41 660.787C1269.78 688.736 1339.9 703.445 1374.2 710.065L1409.27 717.42V802H1374.2C1339.9 802 1269.78 802 1200.41 802C1130.29 802 1060.93 802 990.8 802C921.436 802 852.073 802 781.947 802C712.584 802 642.458 802 573.094 802C502.969 802 433.605 802 364.242 802C294.116 802 224.753 802 154.627 802C85.2636 802 15.1379 802 -19.1627 802H-54.2256V759.342Z"
          stroke="#DDDDDD" stroke-width="0.706601"/>
    <path d="M-447.298 780.997L-416.836 712.71C-386.202 645.496 -325.107 509.995 -257.794 404.334C-191.704 299.954 -120.791 225.623 -34.8948 244.656C51.0013 263.69 151.709 375.015 235.727 373.45C318.179 371.02 382.547 255.909 465.171 254.553C547.623 252.123 649.897 364.313 735.621 382.273C821.517 401.307 892.602 328.048 971.781 305.229C1050.96 282.409 1139.97 311.966 1220.88 299.878C1301.78 287.79 1375.96 233.848 1460.31 243.223C1545.88 251.317 1640.04 321.862 1724.21 330.164C1808.39 338.466 1882.74 285.598 1956.93 231.656C2032.68 178.58 2106.87 124.639 2144.04 98.2047L2181.22 71.7707L2230.82 380.84"
          stroke="#DDDDDD" stroke-width="0.706601"/>
    <path d="M1174.15 -253.84C1202.99 -253.431 1230.84 -262.18 1258.04 -275.194C1283.11 -287.19 1307.64 -302.821 1331.89 -318.267C1333.94 -319.578 1336 -320.887 1338.05 -322.193C1364.31 -338.892 1390.25 -354.992 1416.23 -365.657C1442.21 -376.321 1468.2 -381.54 1494.56 -376.503C1505.73 -374.369 1513.99 -370.807 1519.93 -366.11C1525.87 -361.416 1529.52 -355.576 1531.48 -348.848C1535.39 -335.366 1532.48 -318.316 1527.36 -299.833C1525.12 -291.765 1522.48 -283.441 1519.8 -275.036C1519.41 -273.821 1519.03 -272.604 1518.64 -271.386C1515.58 -261.747 1512.56 -252.038 1510.17 -242.54C1505.4 -223.558 1503.14 -205.359 1508.16 -190.204C1512.49 -177.173 1520.3 -165.337 1529.63 -154.07C1537.18 -144.944 1545.75 -136.176 1554.28 -127.445C1556.28 -125.401 1558.28 -123.358 1560.26 -121.313C1581.16 -99.734 1600.32 -77.9294 1602.43 -50.8322C1602.6 -48.6416 1602.77 -46.4249 1602.95 -44.1849C1605.29 -14.7363 1607.96 18.7582 1601.1 50.1287C1593.73 83.859 1575.36 115.126 1533.7 136.216C1487.42 159.65 1435.53 157.484 1381.62 151.469C1372.56 150.459 1363.45 149.34 1354.3 148.217C1308.99 142.654 1262.71 136.972 1217.63 143.764C1184.77 148.716 1154.95 163.958 1125.6 178.961C1122.72 180.432 1119.85 181.902 1116.98 183.358C1084.8 199.683 1052.87 214.475 1017.66 213.951C982.501 213.427 959.782 198.346 937.941 181.487C935.484 179.59 933.038 177.671 930.586 175.747C911.249 160.574 891.56 145.125 863.5 138.491C840.675 133.094 812.682 132.413 783.161 133.451C765.719 134.065 747.72 135.281 729.928 136.482C717.616 137.314 705.404 138.138 693.546 138.752C664.527 140.255 637.601 140.496 616.356 136.512C595.104 132.526 579.644 124.333 573.387 109.057C566.916 93.2597 571.936 77.9428 584.327 62.85C596.723 47.7512 616.447 32.9414 639.228 18.214C654.867 8.10396 671.926 -1.95485 689.022 -12.0354C696.828 -16.638 704.641 -21.2451 712.33 -25.8636C736.85 -40.5914 760.104 -55.4331 777.762 -70.589C791.281 -82.1923 807.316 -92.7784 823.261 -103.304C829.628 -107.508 835.981 -111.702 842.153 -115.947C863.753 -130.804 883.14 -146.29 892.994 -164.975C902.73 -183.436 903.896 -204.265 901.905 -225.621C900.909 -236.301 899.122 -247.122 897.218 -257.852C896.81 -260.148 896.397 -262.44 895.985 -264.725C894.472 -273.124 892.974 -281.437 891.815 -289.563C888.867 -310.243 888.13 -329.633 894.898 -345.998C901.656 -362.338 915.925 -375.722 943.132 -384.33C970.403 -392.958 991.417 -389.24 1009.36 -378.808C1027.34 -368.361 1042.26 -351.169 1057.3 -332.79C1058.94 -330.797 1060.57 -328.789 1062.21 -326.775C1090.75 -291.698 1120.94 -254.594 1174.15 -253.84Z"
          stroke="#DDDDDD" stroke-width="0.706601"/>
    <path d="M518.937 401.22C518.937 401.787 518.763 402.34 518.437 402.811C518.111 403.282 517.647 403.65 517.105 403.866C516.562 404.083 515.965 404.14 515.39 404.029C514.814 403.919 514.285 403.646 513.87 403.245C513.454 402.845 513.172 402.334 513.057 401.779C512.942 401.223 513.001 400.647 513.226 400.124C513.451 399.6 513.831 399.153 514.319 398.838C514.808 398.523 515.382 398.355 515.969 398.355C516.756 398.356 517.51 398.659 518.067 399.196C518.623 399.733 518.936 400.461 518.937 401.22ZM541.203 398.355C540.616 398.355 540.042 398.523 539.553 398.838C539.065 399.153 538.685 399.6 538.46 400.124C538.235 400.647 538.177 401.223 538.291 401.779C538.406 402.334 538.688 402.845 539.104 403.245C539.519 403.646 540.048 403.919 540.624 404.029C541.199 404.14 541.796 404.083 542.339 403.866C542.881 403.65 543.345 403.282 543.671 402.811C543.997 402.34 544.171 401.787 544.171 401.22C544.17 400.461 543.857 399.733 543.301 399.196C542.744 398.659 541.99 398.356 541.203 398.355ZM566.437 404.084C567.024 404.084 567.598 403.916 568.086 403.602C568.574 403.287 568.955 402.84 569.179 402.316C569.404 401.793 569.463 401.217 569.348 400.661C569.234 400.105 568.951 399.595 568.536 399.194C568.121 398.794 567.592 398.521 567.016 398.411C566.44 398.3 565.843 398.357 565.301 398.574C564.758 398.79 564.295 399.157 563.968 399.629C563.642 400.1 563.468 400.653 563.468 401.22C563.469 401.979 563.782 402.707 564.339 403.244C564.895 403.781 565.65 404.084 566.437 404.084ZM515.969 447.052C515.382 447.052 514.808 447.22 514.319 447.535C513.831 447.85 513.451 448.297 513.226 448.82C513.001 449.344 512.942 449.92 513.057 450.475C513.172 451.031 513.454 451.542 513.87 451.942C514.285 452.343 514.814 452.616 515.39 452.726C515.965 452.837 516.562 452.78 517.105 452.563C517.647 452.346 518.111 451.979 518.437 451.508C518.763 451.037 518.937 450.483 518.937 449.917C518.936 449.157 518.623 448.429 518.067 447.892C517.51 447.355 516.756 447.053 515.969 447.052ZM541.203 447.052C540.616 447.052 540.042 447.22 539.553 447.535C539.065 447.85 538.685 448.297 538.46 448.82C538.235 449.344 538.177 449.92 538.291 450.475C538.406 451.031 538.688 451.542 539.104 451.942C539.519 452.343 540.048 452.616 540.624 452.726C541.199 452.837 541.796 452.78 542.339 452.563C542.881 452.346 543.345 451.979 543.671 451.508C543.997 451.037 544.171 450.483 544.171 449.917C544.17 449.157 543.857 448.429 543.301 447.892C542.744 447.355 541.99 447.053 541.203 447.052ZM566.437 447.052C565.85 447.052 565.276 447.22 564.787 447.535C564.299 447.85 563.919 448.297 563.694 448.82C563.469 449.344 563.411 449.92 563.525 450.475C563.64 451.031 563.922 451.542 564.338 451.942C564.753 452.343 565.282 452.616 565.858 452.726C566.433 452.837 567.03 452.78 567.573 452.563C568.115 452.346 568.579 451.979 568.905 451.508C569.231 451.037 569.405 450.483 569.405 449.917C569.404 449.157 569.091 448.429 568.535 447.892C567.978 447.355 567.224 447.053 566.437 447.052ZM515.969 422.704C515.382 422.704 514.808 422.872 514.319 423.187C513.831 423.501 513.451 423.949 513.226 424.472C513.001 424.996 512.942 425.571 513.057 426.127C513.172 426.683 513.454 427.193 513.87 427.594C514.285 427.994 514.814 428.267 515.39 428.378C515.965 428.488 516.562 428.432 517.105 428.215C517.647 427.998 518.111 427.631 518.437 427.16C518.763 426.689 518.937 426.135 518.937 425.568C518.936 424.809 518.623 424.081 518.067 423.544C517.51 423.007 516.756 422.705 515.969 422.704ZM541.203 422.704C540.616 422.704 540.042 422.872 539.553 423.187C539.065 423.501 538.685 423.949 538.46 424.472C538.235 424.996 538.177 425.571 538.291 426.127C538.406 426.683 538.688 427.193 539.104 427.594C539.519 427.994 540.048 428.267 540.624 428.378C541.199 428.488 541.796 428.432 542.339 428.215C542.881 427.998 543.345 427.631 543.671 427.16C543.997 426.689 544.171 426.135 544.171 425.568C544.17 424.809 543.857 424.081 543.301 423.544C542.744 423.007 541.99 422.705 541.203 422.704ZM566.437 422.704C565.85 422.704 565.276 422.872 564.787 423.187C564.299 423.501 563.919 423.949 563.694 424.472C563.469 424.996 563.411 425.571 563.525 426.127C563.64 426.683 563.922 427.193 564.338 427.594C564.753 427.994 565.282 428.267 565.858 428.378C566.433 428.488 567.03 428.432 567.573 428.215C568.115 427.998 568.579 427.631 568.905 427.16C569.231 426.689 569.405 426.135 569.405 425.568C569.404 424.809 569.091 424.081 568.535 423.544C567.978 423.007 567.224 422.705 566.437 422.704Z"
          fill="#E5E5E5"/>
    <path d="M829.937 148.44C829.937 149.007 829.763 149.561 829.437 150.032C829.111 150.503 828.647 150.87 828.105 151.087C827.562 151.304 826.965 151.36 826.39 151.25C825.814 151.139 825.285 150.866 824.87 150.466C824.454 150.065 824.172 149.555 824.057 148.999C823.942 148.443 824.001 147.868 824.226 147.344C824.451 146.821 824.831 146.373 825.319 146.059C825.808 145.744 826.382 145.576 826.969 145.576C827.756 145.577 828.51 145.879 829.067 146.416C829.623 146.953 829.936 147.681 829.937 148.44ZM852.203 145.576C851.616 145.576 851.042 145.744 850.553 146.059C850.065 146.373 849.685 146.821 849.46 147.344C849.235 147.868 849.177 148.443 849.291 148.999C849.406 149.555 849.688 150.065 850.104 150.466C850.519 150.866 851.048 151.139 851.624 151.25C852.199 151.36 852.796 151.304 853.339 151.087C853.881 150.87 854.345 150.503 854.671 150.032C854.997 149.561 855.171 149.007 855.171 148.44C855.17 147.681 854.857 146.953 854.301 146.416C853.744 145.879 852.99 145.577 852.203 145.576ZM877.437 151.305C878.024 151.305 878.598 151.137 879.086 150.822C879.574 150.507 879.955 150.06 880.179 149.537C880.404 149.013 880.463 148.437 880.348 147.881C880.234 147.326 879.951 146.815 879.536 146.415C879.121 146.014 878.592 145.741 878.016 145.631C877.44 145.52 876.843 145.577 876.301 145.794C875.758 146.011 875.295 146.378 874.968 146.849C874.642 147.32 874.468 147.874 874.468 148.44C874.469 149.2 874.782 149.928 875.339 150.465C875.895 151.002 876.65 151.304 877.437 151.305ZM826.969 194.272C826.382 194.272 825.808 194.44 825.319 194.755C824.831 195.07 824.451 195.517 824.226 196.041C824.001 196.564 823.942 197.14 824.057 197.696C824.172 198.251 824.454 198.762 824.87 199.162C825.285 199.563 825.814 199.836 826.39 199.946C826.965 200.057 827.562 200 828.105 199.783C828.647 199.567 829.111 199.199 829.437 198.728C829.763 198.257 829.937 197.703 829.937 197.137C829.936 196.378 829.623 195.649 829.067 195.112C828.51 194.575 827.756 194.273 826.969 194.272ZM852.203 194.272C851.616 194.272 851.042 194.44 850.553 194.755C850.065 195.07 849.685 195.517 849.46 196.041C849.235 196.564 849.177 197.14 849.291 197.696C849.406 198.251 849.688 198.762 850.104 199.162C850.519 199.563 851.048 199.836 851.624 199.946C852.199 200.057 852.796 200 853.339 199.783C853.881 199.567 854.345 199.199 854.671 198.728C854.997 198.257 855.171 197.703 855.171 197.137C855.17 196.378 854.857 195.649 854.301 195.112C853.744 194.575 852.99 194.273 852.203 194.272ZM877.437 194.272C876.85 194.272 876.276 194.44 875.787 194.755C875.299 195.07 874.919 195.517 874.694 196.041C874.469 196.564 874.411 197.14 874.525 197.696C874.64 198.251 874.922 198.762 875.338 199.162C875.753 199.563 876.282 199.836 876.858 199.946C877.433 200.057 878.03 200 878.573 199.783C879.115 199.567 879.579 199.199 879.905 198.728C880.231 198.257 880.405 197.703 880.405 197.137C880.404 196.378 880.091 195.649 879.535 195.112C878.978 194.575 878.224 194.273 877.437 194.272ZM826.969 169.924C826.382 169.924 825.808 170.092 825.319 170.407C824.831 170.722 824.451 171.169 824.226 171.692C824.001 172.216 823.942 172.792 824.057 173.347C824.172 173.903 824.454 174.414 824.87 174.814C825.285 175.215 825.814 175.488 826.39 175.598C826.965 175.709 827.562 175.652 828.105 175.435C828.647 175.218 829.111 174.851 829.437 174.38C829.763 173.909 829.937 173.355 829.937 172.789C829.936 172.029 829.623 171.301 829.067 170.764C828.51 170.227 827.756 169.925 826.969 169.924ZM852.203 169.924C851.616 169.924 851.042 170.092 850.553 170.407C850.065 170.722 849.685 171.169 849.46 171.692C849.235 172.216 849.177 172.792 849.291 173.347C849.406 173.903 849.688 174.414 850.104 174.814C850.519 175.215 851.048 175.488 851.624 175.598C852.199 175.709 852.796 175.652 853.339 175.435C853.881 175.218 854.345 174.851 854.671 174.38C854.997 173.909 855.171 173.355 855.171 172.789C855.17 172.029 854.857 171.301 854.301 170.764C853.744 170.227 852.99 169.925 852.203 169.924ZM877.437 169.924C876.85 169.924 876.276 170.092 875.787 170.407C875.299 170.722 874.919 171.169 874.694 171.692C874.469 172.216 874.411 172.792 874.525 173.347C874.64 173.903 874.922 174.414 875.338 174.814C875.753 175.215 876.282 175.488 876.858 175.598C877.433 175.709 878.03 175.652 878.573 175.435C879.115 175.218 879.579 174.851 879.905 174.38C880.231 173.909 880.405 173.355 880.405 172.789C880.404 172.029 880.091 171.301 879.535 170.764C878.978 170.227 878.224 169.925 877.437 169.924Z"
          fill="#E5E5E5"/>
    <path d="M829.937 73.4211C829.937 73.9876 829.763 74.5415 829.437 75.0125C829.111 75.4836 828.647 75.8507 828.105 76.0676C827.562 76.2844 826.965 76.3411 826.39 76.2306C825.814 76.12 825.285 75.8472 824.87 75.4466C824.454 75.046 824.172 74.5356 824.057 73.9799C823.942 73.4243 824.001 72.8483 824.226 72.3249C824.451 71.8015 824.831 71.3541 825.319 71.0393C825.808 70.7246 826.382 70.5566 826.969 70.5566C827.756 70.5575 828.51 70.8596 829.067 71.3966C829.623 71.9336 829.936 72.6617 829.937 73.4211ZM852.203 70.5566C851.616 70.5566 851.042 70.7246 850.553 71.0393C850.065 71.3541 849.685 71.8015 849.46 72.3249C849.235 72.8483 849.177 73.4243 849.291 73.9799C849.406 74.5356 849.688 75.046 850.104 75.4466C850.519 75.8472 851.048 76.12 851.624 76.2306C852.199 76.3411 852.796 76.2844 853.339 76.0676C853.881 75.8507 854.345 75.4836 854.671 75.0125C854.997 74.5415 855.171 73.9876 855.171 73.4211C855.17 72.6617 854.857 71.9336 854.301 71.3966C853.744 70.8596 852.99 70.5575 852.203 70.5566ZM877.437 76.2856C878.024 76.2856 878.598 76.1176 879.086 75.8028C879.574 75.4881 879.955 75.0407 880.179 74.5173C880.404 73.9939 880.463 73.4179 880.348 72.8623C880.234 72.3066 879.951 71.7962 879.536 71.3956C879.121 70.995 878.592 70.7221 878.016 70.6116C877.44 70.5011 876.843 70.5578 876.301 70.7746C875.758 70.9914 875.295 71.3586 874.968 71.8297C874.642 72.3007 874.468 72.8545 874.468 73.4211C874.469 74.1805 874.782 74.9086 875.339 75.4456C875.895 75.9826 876.65 76.2846 877.437 76.2856ZM826.969 119.253C826.382 119.253 825.808 119.421 825.319 119.736C824.831 120.051 824.451 120.498 824.226 121.022C824.001 121.545 823.942 122.121 824.057 122.677C824.172 123.232 824.454 123.743 824.87 124.143C825.285 124.544 825.814 124.817 826.39 124.927C826.965 125.038 827.562 124.981 828.105 124.764C828.647 124.547 829.111 124.18 829.437 123.709C829.763 123.238 829.937 122.684 829.937 122.118C829.936 121.358 829.623 120.63 829.067 120.093C828.51 119.556 827.756 119.254 826.969 119.253ZM852.203 119.253C851.616 119.253 851.042 119.421 850.553 119.736C850.065 120.051 849.685 120.498 849.46 121.022C849.235 121.545 849.177 122.121 849.291 122.677C849.406 123.232 849.688 123.743 850.104 124.143C850.519 124.544 851.048 124.817 851.624 124.927C852.199 125.038 852.796 124.981 853.339 124.764C853.881 124.547 854.345 124.18 854.671 123.709C854.997 123.238 855.171 122.684 855.171 122.118C855.17 121.358 854.857 120.63 854.301 120.093C853.744 119.556 852.99 119.254 852.203 119.253ZM877.437 119.253C876.85 119.253 876.276 119.421 875.787 119.736C875.299 120.051 874.919 120.498 874.694 121.022C874.469 121.545 874.411 122.121 874.525 122.677C874.64 123.232 874.922 123.743 875.338 124.143C875.753 124.544 876.282 124.817 876.858 124.927C877.433 125.038 878.03 124.981 878.573 124.764C879.115 124.547 879.579 124.18 879.905 123.709C880.231 123.238 880.405 122.684 880.405 122.118C880.404 121.358 880.091 120.63 879.535 120.093C878.978 119.556 878.224 119.254 877.437 119.253ZM826.969 94.9049C826.382 94.9049 825.808 95.0729 825.319 95.3877C824.831 95.7024 824.451 96.1498 824.226 96.6732C824.001 97.1966 823.942 97.7726 824.057 98.3283C824.172 98.8839 824.454 99.3943 824.87 99.7949C825.285 100.196 825.814 100.468 826.39 100.579C826.965 100.689 827.562 100.633 828.105 100.416C828.647 100.199 829.111 99.8319 829.437 99.3608C829.763 98.8898 829.937 98.336 829.937 97.7694C829.936 97.01 829.623 96.2819 829.067 95.7449C828.51 95.208 827.756 94.9058 826.969 94.9049ZM852.203 94.9049C851.616 94.9049 851.042 95.0729 850.553 95.3877C850.065 95.7024 849.685 96.1498 849.46 96.6732C849.235 97.1966 849.177 97.7726 849.291 98.3283C849.406 98.8839 849.688 99.3943 850.104 99.7949C850.519 100.196 851.048 100.468 851.624 100.579C852.199 100.689 852.796 100.633 853.339 100.416C853.881 100.199 854.345 99.8319 854.671 99.3608C854.997 98.8898 855.171 98.336 855.171 97.7694C855.17 97.01 854.857 96.2819 854.301 95.7449C853.744 95.208 852.99 94.9058 852.203 94.9049ZM877.437 94.9049C876.85 94.9049 876.276 95.0729 875.787 95.3877C875.299 95.7024 874.919 96.1498 874.694 96.6732C874.469 97.1966 874.411 97.7726 874.525 98.3283C874.64 98.8839 874.922 99.3943 875.338 99.7949C875.753 100.196 876.282 100.468 876.858 100.579C877.433 100.689 878.03 100.633 878.573 100.416C879.115 100.199 879.579 99.8319 879.905 99.3608C880.231 98.8898 880.405 98.336 880.405 97.7694C880.404 97.01 880.091 96.2819 879.535 95.7449C878.978 95.208 878.224 94.9058 877.437 94.9049Z"
          fill="#E5E5E5"/>
    <path d="M829.937 -1.59801C829.937 -1.03147 829.763 -0.477644 829.437 -0.00657797C829.111 0.464488 828.647 0.831639 828.105 1.04845C827.562 1.26525 826.965 1.32198 826.39 1.21145C825.814 1.10093 825.285 0.828107 824.87 0.427498C824.454 0.0268893 824.172 -0.483516 824.057 -1.03918C823.942 -1.59484 824.001 -2.17079 824.226 -2.69421C824.451 -3.21763 824.831 -3.66501 825.319 -3.97977C825.808 -4.29452 826.382 -4.46252 826.969 -4.46252C827.756 -4.46158 828.51 -4.15948 829.067 -3.62248C829.623 -3.08549 829.936 -2.35744 829.937 -1.59801ZM852.203 -4.46252C851.616 -4.46252 851.042 -4.29452 850.553 -3.97977C850.065 -3.66501 849.685 -3.21763 849.46 -2.69421C849.235 -2.17079 849.177 -1.59484 849.291 -1.03918C849.406 -0.483516 849.688 0.0268893 850.104 0.427498C850.519 0.828107 851.048 1.10093 851.624 1.21145C852.199 1.32198 852.796 1.26525 853.339 1.04845C853.881 0.831639 854.345 0.464488 854.671 -0.00657797C854.997 -0.477644 855.171 -1.03147 855.171 -1.59801C855.17 -2.35744 854.857 -3.08549 854.301 -3.62248C853.744 -4.15948 852.99 -4.46158 852.203 -4.46252ZM877.437 1.26649C878.024 1.26649 878.598 1.09849 879.086 0.783737C879.574 0.468981 879.955 0.0216055 880.179 -0.501815C880.404 -1.02524 880.463 -1.60119 880.348 -2.15685C880.234 -2.71251 879.951 -3.22292 879.536 -3.62353C879.121 -4.02414 878.592 -4.29695 878.016 -4.40748C877.44 -4.51801 876.843 -4.46128 876.301 -4.24448C875.758 -4.02767 875.295 -3.66052 874.968 -3.18945C874.642 -2.71838 874.468 -2.16456 874.468 -1.59801C874.469 -0.83859 874.782 -0.110542 875.339 0.426452C875.895 0.963446 876.65 1.26555 877.437 1.26649ZM826.969 44.2341C826.382 44.2341 825.808 44.4021 825.319 44.7169C824.831 45.0316 824.451 45.479 824.226 46.0024C824.001 46.5258 823.942 47.1018 824.057 47.6575C824.172 48.2131 824.454 48.7235 824.87 49.1241C825.285 49.5247 825.814 49.7976 826.39 49.9081C826.965 50.0186 827.562 49.9619 828.105 49.7451C828.647 49.5283 829.111 49.1611 829.437 48.6901C829.763 48.219 829.937 47.6652 829.937 47.0986C829.936 46.3392 829.623 45.6112 829.067 45.0742C828.51 44.5372 827.756 44.2351 826.969 44.2341ZM852.203 44.2341C851.616 44.2341 851.042 44.4021 850.553 44.7169C850.065 45.0316 849.685 45.479 849.46 46.0024C849.235 46.5258 849.177 47.1018 849.291 47.6575C849.406 48.2131 849.688 48.7235 850.104 49.1241C850.519 49.5247 851.048 49.7976 851.624 49.9081C852.199 50.0186 852.796 49.9619 853.339 49.7451C853.881 49.5283 854.345 49.1611 854.671 48.6901C854.997 48.219 855.171 47.6652 855.171 47.0986C855.17 46.3392 854.857 45.6112 854.301 45.0742C853.744 44.5372 852.99 44.2351 852.203 44.2341ZM877.437 44.2341C876.85 44.2341 876.276 44.4021 875.787 44.7169C875.299 45.0316 874.919 45.479 874.694 46.0024C874.469 46.5258 874.411 47.1018 874.525 47.6575C874.64 48.2131 874.922 48.7235 875.338 49.1241C875.753 49.5247 876.282 49.7976 876.858 49.9081C877.433 50.0186 878.03 49.9619 878.573 49.7451C879.115 49.5283 879.579 49.1611 879.905 48.6901C880.231 48.219 880.405 47.6652 880.405 47.0986C880.404 46.3392 880.091 45.6112 879.535 45.0742C878.978 44.5372 878.224 44.2351 877.437 44.2341ZM826.969 19.8858C826.382 19.8858 825.808 20.0538 825.319 20.3686C824.831 20.6833 824.451 21.1307 824.226 21.6541C824.001 22.1775 823.942 22.7535 824.057 23.3091C824.172 23.8648 824.454 24.3752 824.87 24.7758C825.285 25.1764 825.814 25.4492 826.39 25.5598C826.965 25.6703 827.562 25.6136 828.105 25.3968C828.647 25.18 829.111 24.8128 829.437 24.3417C829.763 23.8707 829.937 23.3169 829.937 22.7503C829.936 21.9909 829.623 21.2628 829.067 20.7258C828.51 20.1888 827.756 19.8867 826.969 19.8858ZM852.203 19.8858C851.616 19.8858 851.042 20.0538 850.553 20.3686C850.065 20.6833 849.685 21.1307 849.46 21.6541C849.235 22.1775 849.177 22.7535 849.291 23.3091C849.406 23.8648 849.688 24.3752 850.104 24.7758C850.519 25.1764 851.048 25.4492 851.624 25.5598C852.199 25.6703 852.796 25.6136 853.339 25.3968C853.881 25.18 854.345 24.8128 854.671 24.3417C854.997 23.8707 855.171 23.3169 855.171 22.7503C855.17 21.9909 854.857 21.2628 854.301 20.7258C853.744 20.1888 852.99 19.8867 852.203 19.8858ZM877.437 19.8858C876.85 19.8858 876.276 20.0538 875.787 20.3686C875.299 20.6833 874.919 21.1307 874.694 21.6541C874.469 22.1775 874.411 22.7535 874.525 23.3091C874.64 23.8648 874.922 24.3752 875.338 24.7758C875.753 25.1764 876.282 25.4492 876.858 25.5598C877.433 25.6703 878.03 25.6136 878.573 25.3968C879.115 25.18 879.579 24.8128 879.905 24.3417C880.231 23.8707 880.405 23.3169 880.405 22.7503C880.404 21.9909 880.091 21.2628 879.535 20.7258C878.978 20.1888 878.224 19.8867 877.437 19.8858Z"
          fill="#E5E5E5"/>
</svg>
